
<svg version="1.0" xmlns="http://www.w3.org/2000/svg"
 width="1482.000000pt" height="500.000000pt" viewBox="0 0 1482.000000 500.000000"
 preserveAspectRatio="xMidYMid meet">

<g transform="translate(0.000000,500.000000) scale(0.100000,-0.100000)"
fill="#000000" stroke="none">
<path d="M1175 4989 c-166 -17 -329 -66 -490 -146 -138 -69 -398 -228 -478
-293 -236 -190 -268 -407 -90 -609 165 -188 431 -375 674 -475 109 -45 463
-151 1991 -597 l388 -113 6 -33 c6 -34 -1 -89 -14 -110 -6 -10 -30 -7 -102 13
-130 34 -170 56 -233 124 l-55 59 -11 -44 c-18 -72 -14 -208 9 -272 30 -87 92
-159 175 -203 38 -21 73 -44 77 -51 5 -8 24 -148 43 -313 36 -316 41 -333 95
-361 25 -13 277 -76 347 -87 16 -2 74 37 210 143 201 156 213 163 911 519 129
66 164 90 130 90 -7 0 -323 68 -702 152 -665 146 -689 151 -702 133 -8 -11
-13 -24 -11 -29 2 -6 126 -50 276 -99 150 -49 271 -90 269 -92 -1 -1 -135 26
-296 62 l-293 65 -41 -37 c-51 -47 -133 -85 -178 -84 l-35 1 29 8 c115 35 207
182 210 337 0 40 2 73 4 73 3 0 346 -100 1027 -300 209 -61 481 -141 605 -177
124 -35 317 -91 430 -124 1193 -347 1347 -389 1570 -428 337 -59 613 -81 1090
-88 l405 -6 95 -47 c133 -66 408 -154 830 -265 999 -263 1203 -316 1205 -313
2 2 -211 66 -473 142 -563 164 -1020 298 -1114 326 l-68 21 0 78 0 78 128 6
c230 12 891 77 942 92 10 3 42 77 85 196 l69 192 -45 37 c-24 21 -41 41 -38
44 3 4 30 11 60 17 54 11 58 10 744 -189 682 -198 2404 -676 2411 -670 2 2
-418 127 -934 277 -975 285 -1907 557 -2025 592 -38 11 -67 22 -65 24 1 2 271
74 598 160 536 141 599 156 635 147 22 -5 350 -91 729 -191 379 -100 690 -180
692 -178 2 2 -303 93 -679 202 -614 179 -708 209 -940 302 -176 71 -281 107
-330 115 -86 13 -122 10 -1202 -97 -412 -41 -804 -79 -870 -85 -130 -12 -229
-40 -375 -107 l-85 -39 85 -22 c47 -11 324 -117 615 -234 424 -170 523 -214
496 -216 -18 -2 -167 4 -330 12 -957 52 -1698 142 -2126 257 -60 17 -328 93
-595 170 -267 77 -502 145 -523 151 -20 6 -35 13 -33 15 2 2 227 75 501 162
400 128 502 158 522 150 34 -13 54 -10 23 3 -22 10 -8 16 139 64 l165 53 455
-135 c251 -75 521 -155 601 -179 l145 -44 665 355 c366 195 684 360 706 366
38 10 57 7 200 -31 88 -24 163 -47 168 -52 6 -5 -30 -9 -91 -9 -98 0 -101 -1
-140 -32 -58 -47 -503 -472 -498 -476 4 -4 568 45 622 53 29 5 40 22 177 263
80 142 148 265 151 273 4 10 -15 20 -73 37 -42 13 -169 53 -282 89 -113 36
-223 66 -246 66 -30 0 -64 -12 -130 -48 -495 -266 -925 -484 -1132 -574 l-74
-32 -216 64 c-120 36 -299 89 -399 118 -101 30 -183 56 -183 59 0 3 235 81
523 172 l522 167 1733 432 c954 237 1730 435 1725 440 -8 8 -708 206 -831 235
-94 22 -193 16 -872 -50 -316 -31 -691 -68 -832 -81 -142 -14 -374 -36 -515
-50 -1063 -102 -2037 -196 -2656 -256 l-729 -70 -276 82 c-152 45 -296 87
-319 94 -24 7 -43 12 -43 11 0 -2 22 -17 49 -35 28 -17 70 -52 95 -76 45 -43
51 -46 357 -139 209 -63 324 -103 350 -122 48 -33 101 -103 133 -175 24 -57
50 -149 43 -156 -3 -2 -20 3 -38 12 -29 13 -750 235 -764 235 -3 0 -5 -25 -5
-55 l0 -54 93 -29 c50 -16 188 -58 305 -93 117 -35 209 -65 204 -67 -5 -1
-146 22 -313 52 -167 31 -307 52 -310 48 -4 -4 -12 -24 -18 -44 -19 -57 -82
-148 -140 -200 -59 -54 -132 -91 -209 -107 -82 -17 -92 -13 -31 13 181 74 283
245 282 471 -1 252 -146 436 -342 437 -164 1 -312 -132 -367 -331 -7 -25 -13
-38 -13 -27 -2 32 29 137 55 189 14 27 24 51 21 53 -2 2 -228 71 -503 153
-1700 508 -2361 702 -2449 720 -183 38 -337 47 -500 30z m397 -259 c128 -22
91 -11 958 -270 355 -106 884 -263 1175 -350 292 -87 523 -161 515 -163 -21
-7 -446 -47 -501 -47 -26 0 -134 24 -240 54 -223 62 -975 265 -1094 295 -86
22 -113 25 -160 22 -27 -2 -28 -3 -10 -12 18 -8 357 -104 1060 -300 138 -38
258 -72 269 -75 13 -5 0 -14 -50 -34 -91 -37 -182 -89 -274 -155 -83 -61 -81
-63 50 -40 78 13 419 54 995 120 121 13 235 27 253 30 l32 6 0 -70 c0 -80 12
-73 -145 -91 -49 -6 -395 -49 -769 -95 l-678 -85 -917 266 c-504 146 -1042
308 -1196 359 -266 90 -287 96 -425 110 -181 20 -175 17 -156 54 26 49 129
133 263 213 153 92 178 98 422 104 166 5 176 6 229 33 l55 28 -41 7 c-23 3
-96 11 -163 16 -68 6 -124 11 -125 13 -6 6 142 50 211 62 110 21 325 18 457
-5z m9633 -150 c-11 -4 -380 -59 -820 -120 -440 -62 -1209 -170 -1710 -241
-500 -70 -1227 -173 -1615 -228 -388 -55 -732 -103 -765 -106 l-60 -7 -54 56
c-64 65 -83 57 179 86 102 12 415 48 695 81 281 33 587 68 680 79 94 11 364
42 600 70 237 28 468 55 515 60 390 45 2319 271 2335 274 34 6 41 5 20 -4z
m-10664 -516 c105 -51 304 -135 444 -187 132 -49 342 -117 1365 -437 371 -116
758 -238 860 -270 102 -32 365 -115 585 -184 220 -68 715 -224 1100 -344 385
-121 913 -286 1172 -368 260 -81 471 -149 469 -151 -2 -2 -491 142 -1087 321
-2066 619 -3353 1004 -3850 1150 -394 116 -524 162 -743 265 -152 71 -427 239
-395 241 3 0 39 -16 80 -36z m4439 1 c27 -14 115 -104 108 -110 -2 -2 -35 -9
-73 -15 -38 -6 -89 -20 -113 -30 -51 -23 -149 -118 -215 -210 l-47 -64 0 84
c0 129 30 221 94 288 70 75 168 98 246 57z m-2555 -844 c270 -77 744 -216
1055 -309 311 -93 1021 -306 1577 -473 557 -166 1011 -305 1009 -307 -13 -12
-318 76 -2646 768 -410 122 -873 260 -1030 306 -317 94 -460 141 -475 156 -7
6 -5 7 5 4 8 -3 236 -69 505 -145z m4185 -1116 c19 -7 28 -13 20 -13 -8 0 -31
6 -50 13 -19 7 -28 13 -20 13 8 0 31 -6 50 -13z"/>
<path d="M12580 4247 c12 -13 571 -211 730 -258 178 -53 1190 -313 1196 -307
2 2 -423 129 -945 281 -522 152 -957 280 -967 283 -11 4 -17 4 -14 1z"/>
<path d="M14528 3673 c7 -3 16 -2 19 1 4 3 -2 6 -13 5 -11 0 -14 -3 -6 -6z"/>
<path d="M7098 2883 c7 -3 16 -2 19 1 4 3 -2 6 -13 5 -11 0 -14 -3 -6 -6z"/>
<path d="M7168 2863 c7 -3 16 -2 19 1 4 3 -2 6 -13 5 -11 0 -14 -3 -6 -6z"/>
<path d="M12898 2163 c7 -3 16 -2 19 1 4 3 -2 6 -13 5 -11 0 -14 -3 -6 -6z"/>
<path d="M12968 2143 c7 -3 16 -2 19 1 4 3 -2 6 -13 5 -11 0 -14 -3 -6 -6z"/>
<path d="M5231 1996 c2 -3 209 -75 459 -161 377 -129 618 -203 1410 -430 525
-151 1212 -344 1525 -430 314 -86 799 -219 1079 -296 280 -76 511 -138 512
-136 2 2 -542 163 -1209 357 -1362 398 -1371 400 -1592 465 -879 257 -2177
635 -2182 635 -4 0 -4 -2 -2 -4z"/>
<path d="M5565 1719 c442 -147 691 -224 1365 -420 244 -72 1126 -319 3184
-895 186 -52 340 -93 342 -91 2 2 -186 59 -419 126 -232 68 -775 227 -1207
353 -432 126 -906 265 -1055 308 -148 43 -326 95 -395 115 -749 220 -2314 675
-2319 674 -3 -1 224 -77 504 -170z"/>
<path d="M3940 1337 c13 -14 586 -214 755 -263 105 -31 280 -82 390 -114 110
-32 432 -126 715 -208 465 -136 1606 -439 1616 -429 2 2 -132 43 -299 91 -166
49 -437 128 -602 176 -165 48 -457 134 -650 190 -192 56 -447 130 -565 165
-218 64 -1308 381 -1345 392 -11 3 -18 3 -15 0z"/>
<path d="M13275 1330 c11 -5 27 -9 35 -9 9 0 8 4 -5 9 -11 5 -27 9 -35 9 -9 0
-8 -4 5 -9z"/>
<path d="M10598 953 c7 -3 16 -2 19 1 4 3 -2 6 -13 5 -11 0 -14 -3 -6 -6z"/>
<path d="M10238 533 c7 -3 16 -2 19 1 4 3 -2 6 -13 5 -11 0 -14 -3 -6 -6z"/>
<path d="M10308 513 c7 -3 16 -2 19 1 4 3 -2 6 -13 5 -11 0 -14 -3 -6 -6z"/>
<path d="M7445 310 c11 -5 27 -9 35 -9 9 0 8 4 -5 9 -11 5 -27 9 -35 9 -9 0
-8 -4 5 -9z"/>
<path d="M10485 300 c11 -5 27 -9 35 -9 9 0 8 4 -5 9 -11 5 -27 9 -35 9 -9 0
-8 -4 5 -9z"/>
<path d="M7508 293 c7 -3 16 -2 19 1 4 3 -2 6 -13 5 -11 0 -14 -3 -6 -6z"/>
<path d="M10555 280 c11 -5 27 -9 35 -9 9 0 8 4 -5 9 -11 5 -27 9 -35 9 -9 0
-8 -4 5 -9z"/>
<path d="M10625 260 c11 -5 27 -9 35 -9 9 0 8 4 -5 9 -11 5 -27 9 -35 9 -9 0
-8 -4 5 -9z"/>
</g>
</svg>
